# File created by Blade
# Date/Time:  Thu Jan 22 18:06:27 2015
# Frame Rate: 120.000 fps
#------------------------------------------------------
:FULLY-SPECIFIED
:DEGREES
2431
root 0.213001 33.199678 -2.018546 7.916192 -12.943929 -3.497363
RightUpLeg -22.820660 -21.529884 2.040655
RightLeg 93.278655 -0.000000 -0.000000
RightFoot 4.070885 -8.828967 1.214945
RightToeBase -4.957560 -0.000000 0.000000
LeftUpLeg -1.725614 7.324079 -6.396421
LeftLeg 1.257942 -0.000000 -0.000000
LeftFoot -13.144025 9.059056 -4.756572
LeftToeBase 7.189243 -0.000000 -0.000000
Spine -9.033736 -0.675566 -0.068455
RightShoulder -16.744297 -16.110635 -19.769777
RightArm 29.536367 16.982546 53.916510
RightForeArm -3.781888 -0.000000 22.391233
RightHand 11.865044 -0.000000 0.255488
RightHandThumb1 -24.326973 -0.000000 -32.862282
LeftShoulder -22.813087 8.233811 25.350009
LeftArm -0.331094 -46.873288 -48.623042
LeftForeArm 10.411468 -0.000000 71.132230
LeftHand -3.895815 -0.000000 34.476830
LeftHandThumb1 -26.253704 0.000000 33.147579
Head 18.845256 -9.749987 -3.238602
2432
root 0.209297 33.196710 -2.020821 7.926494 -13.004679 -3.464423
RightUpLeg -22.784762 -21.525638 2.040348
RightLeg 93.094146 -0.000000 -0.000000
RightFoot 3.939300 -8.906807 1.270406
RightToeBase -5.202565 -0.000000 0.000000
LeftUpLeg -1.758811 7.332761 -6.428863
LeftLeg 1.293964 -0.000000 -0.000000
LeftFoot -13.171408 9.083613 -4.792166
LeftToeBase 7.180083 -0.000000 -0.000000
Spine -9.011334 -0.666105 -0.096330
RightShoulder -16.764600 -16.148018 -19.747375
RightArm 29.546932 17.033371 53.905131
RightForeArm -3.772537 -0.000000 22.398864
RightHand 11.825112 -0.000000 0.191653
RightHandThumb1 -24.326973 -0.000000 -32.862282
LeftShoulder -22.828708 8.270561 25.348637
LeftArm -0.368179 -46.884429 -48.589806
LeftForeArm 10.377264 0.000000 71.089779
LeftHand -3.916572 -0.000000 34.528181
LeftHandThumb1 -26.253704 0.000000 33.147579
Head 18.786447 -9.663524 -3.158105
2433
root 0.205486 33.193439 -2.023658 7.942243 -13.063789 -3.428729
RightUpLeg -22.758386 -21.502536 2.034499
RightLeg 92.909198 -0.000000 -0.000000
RightFoot 3.705812 -9.064974 0.988896
RightToeBase -4.729742 -0.000000 0.000000
LeftUpLeg -1.799758 7.347485 -6.464471
LeftLeg 1.330824 -0.000000 -0.000000
LeftFoot -13.200353 9.105459 -4.791463
LeftToeBase 7.115275 -0.000000 -0.000000
Spine -8.994301 -0.667495 -0.123371
RightShoulder -16.787521 -16.195314 -19.725859
RightArm 29.583705 17.086066 53.902079
RightForeArm -3.750254 -0.000000 22.389363
RightHand 11.823898 -0.000000 0.127689
RightHandThumb1 -24.326973 -0.000000 -32.862282
LeftShoulder -22.860607 8.295577 25.350377
LeftArm -0.406224 -46.898964 -48.555142
LeftForeArm 10.352389 -0.000000 71.042502
LeftHand -3.937388 -0.000000 34.506722
LeftHandThumb1 -26.253704 0.000000 33.147579
Head 18.723756 -9.559969 -3.104295
2434
root 0.202166 33.189741 -2.027808 7.954927 -13.132380 -3.388717
RightUpLeg -22.734843 -21.447791 2.036297
RightLeg 92.700727 -0.000000 -0.000000
RightFoot 3.472047 -9.092005 1.193003
RightToeBase -4.635417 -0.000000 0.000000
LeftUpLeg -1.856810 7.388063 -6.507660
LeftLeg 1.401297 -0.000000 -0.000000
LeftFoot -13.253874 9.107340 -4.817199
LeftToeBase 7.090215 -0.000000 -0.000000
Spine -8.968887 -0.642890 -0.158941
RightShoulder -16.810928 -16.182085 -19.712294
RightArm 29.539474 17.065062 53.835603
RightForeArm -3.657540 -0.000000 22.391826
RightHand 11.849319 -0.000000 0.097332
RightHandThumb1 -24.326973 -0.000000 -32.862282
LeftShoulder -22.867570 8.299274 25.362339
LeftArm -0.468616 -46.907696 -48.509866
LeftForeArm 10.341913 -0.000000 70.987236
LeftHand -3.919618 -0.000000 34.550721
LeftHandThumb1 -26.253704 0.000000 33.147579
Head 18.661003 -9.494928 -3.048961
2435
root 0.200298 33.185646 -2.032195 7.962441 -13.200153 -3.342999
RightUpLeg -22.709262 -21.398588 2.020423
RightLeg 92.510525 -0.000000 -0.000000
RightFoot 3.159141 -9.150164 1.026400
RightToeBase -4.403533 -0.000000 0.000000
LeftUpLeg -1.903786 7.415723 -6.561370
LeftLeg 1.457162 -0.000000 -0.000000
LeftFoot -13.293886 9.143904 -4.788539
LeftToeBase 7.130563 -0.000000 -0.000000
Spine -8.935195 -0.634820 -0.189133
RightShoulder -16.820263 -16.155842 -19.731051
RightArm 29.504552 17.102616 53.848512
RightForeArm -3.744842 -0.000000 22.393375
RightHand 11.841811 -0.000000 0.081398
RightHandThumb1 -24.326973 -0.000000 -32.862282
LeftShoulder -22.881552 8.271769 25.380762
LeftArm -0.583586 -46.903885 -48.424123
LeftForeArm 10.354457 -0.000000 70.929370
LeftHand -3.963468 -0.000000 34.562789
LeftHandThumb1 -26.253704 0.000000 33.147579
Head 18.606971 -9.402495 -3.020455
2436
root 0.199566 33.181015 -2.035979 7.958193 -13.279377 -3.284932
RightUpLeg -22.662735 -21.356225 1.980087
RightLeg 92.301391 -0.000000 -0.000000
RightFoot 2.879823 -9.181153 1.010443
RightToeBase -4.573751 -0.000000 0.000000
LeftUpLeg -1.942870 7.463426 -6.630054
LeftLeg 1.516646 -0.000000 -0.000000
LeftFoot -13.330350 9.166385 -4.759633
LeftToeBase 7.124640 -0.000000 -0.000000
Spine -8.893934 -0.627091 -0.237175
RightShoulder -16.822017 -16.147910 -19.726418
RightArm 29.491593 17.126902 53.831119
RightForeArm -3.768657 0.000000 22.383110
RightHand 11.837132 -0.000000 0.039657
RightHandThumb1 -24.326973 -0.000000 -32.862282
LeftShoulder -22.915843 8.330457 25.376048
LeftArm -0.582841 -46.960879 -48.443947
LeftForeArm 10.351912 -0.000000 70.881425
LeftHand -3.955684 -0.000000 34.611780
LeftHandThumb1 -26.253704 0.000000 33.147579
Head 18.571174 -9.300758 -2.972210
2437
root 0.199006 33.176227 -2.040473 7.961672 -13.356108 -3.234010
RightUpLeg -22.626316 -21.308449 1.941010
RightLeg 92.118796 -0.000000 -0.000000
RightFoot 2.534975 -9.104775 1.158137
RightToeBase -4.639478 -0.000000 0.000000
LeftUpLeg -1.993547 7.460638 -6.691917
LeftLeg 1.582674 -0.000000 -0.000000
LeftFoot -13.376359 9.227441 -4.755092
LeftToeBase 7.129622 -0.000000 -0.000000
Spine -8.857577 -0.610340 -0.273596
RightShoulder -16.838478 -16.186007 -19.717423
RightArm 29.520360 17.188882 53.844214
RightForeArm -3.768915 -0.000000 22.375050
RightHand 11.822174 -0.000000 0.044294
RightHandThumb1 -24.326973 -0.000000 -32.862282
LeftShoulder -22.932749 8.354772 25.382949
LeftArm -0.625944 -47.005300 -48.439891
LeftForeArm 10.377682 -0.000000 70.828602
LeftHand -3.958799 -0.000000 34.625152
LeftHandThumb1 -26.253704 0.000000 33.147579
Head 18.520573 -9.196255 -2.943207
2438
root 0.197205 33.173408 -2.049111 8.012761 -13.440964 -3.205155
RightUpLeg -22.666020 -21.211657 1.974808
RightLeg 91.927999 -0.000000 -0.000000
RightFoot 2.258861 -9.097914 0.927569
RightToeBase -4.334958 -0.000000 0.000000
LeftUpLeg -2.096039 7.443427 -6.737232
LeftLeg 1.653874 -0.000000 -0.000000
LeftFoot -13.422873 9.323127 -4.716380
LeftToeBase 7.154559 -0.000000 -0.000000
Spine -8.869258 -0.591212 -0.290891
RightShoulder -16.829985 -16.186095 -19.708108
RightArm 29.500954 17.244237 53.835587
RightForeArm -3.832703 0.000000 22.363209
RightHand 11.864916 -0.000000 0.042908
RightHandThumb1 -24.326973 -0.000000 -32.862282
LeftShoulder -22.976856 8.420196 25.363949
LeftArm -0.591134 -47.072426 -48.480230
LeftForeArm 10.388189 0.000000 70.775926
LeftHand -3.896749 -0.000000 34.671496
LeftHandThumb1 -26.253704 0.000000 33.147579
Head 18.491762 -9.088572 -2.916350
2439
root 0.196077 33.169130 -2.053104 8.015435 -13.525066 -3.170040
RightUpLeg -22.640764 -21.165728 1.970895
RightLeg 91.742309 -0.000000 -0.000000
RightFoot 1.990630 -9.108265 0.834954
RightToeBase -4.433697 -0.000000 0.000000
LeftUpLeg -2.133366 7.438519 -6.784986
LeftLeg 1.698477 -0.000000 -0.000000
LeftFoot -13.466368 9.408442 -4.703063
LeftToeBase 7.219218 -0.000000 -0.000000
Spine -8.828233 -0.574096 -0.300175
RightShoulder -16.822708 -16.179664 -19.716235
RightArm 29.473153 17.275278 53.815544
RightForeArm -3.860618 -0.000000 22.376268
RightHand 11.820824 -0.000000 0.093998
RightHandThumb1 -24.326973 -0.000000 -32.862282
LeftShoulder -23.007217 8.411266 25.349340
LeftArm -0.670333 -47.088962 -48.416288
LeftForeArm 10.383005 -0.000000 70.724833
LeftHand -3.879562 -0.000000 34.677647
LeftHandThumb1 -26.253704 0.000000 33.147579
Head 18.454118 -8.994089 -2.931721
2440
root 0.194106 33.164644 -2.057508 8.010052 -13.618772 -3.139841
RightUpLeg -22.612213 -21.111749 1.982004
RightLeg 91.578295 -0.000000 -0.000000
RightFoot 1.761073 -9.074861 0.576285
RightToeBase -4.349782 -0.000000 0.000000
LeftUpLeg -2.154855 7.442720 -6.826139
LeftLeg 1.728891 -0.000000 -0.000000
LeftFoot -13.503512 9.487364 -4.687119
LeftToeBase 7.133266 -0.000000 -0.000000
Spine -8.779384 -0.544027 -0.313185
RightShoulder -16.817458 -16.160773 -19.717139
RightArm 29.447789 17.293100 53.784688
RightForeArm -3.864157 0.000000 22.347461
RightHand 11.827056 -0.000000 0.103488
RightHandThumb1 -24.326973 -0.000000 -32.862282
LeftShoulder -23.030902 8.434829 25.336139
LeftArm -0.706816 -47.135824 -48.396415
LeftForeArm 10.370229 -0.000000 70.675868
LeftHand -3.876891 -0.000000 34.722270
LeftHandThumb1 -26.253704 0.000000 33.147579
Head 18.449034 -8.876282 -2.920764
2441
root 0.192867 33.160293 -2.061978 8.007875 -13.719069 -3.110511
RightUpLeg -22.583668 -21.048574 1.986253
RightLeg 91.412870 -0.000000 -0.000000
RightFoot 1.540724 -9.005869 0.307246
RightToeBase -4.417042 -0.000000 0.000000
LeftUpLeg -2.173638 7.443443 -6.874430
LeftLeg 1.747886 -0.000000 -0.000000
LeftFoot -13.536080 9.622205 -4.636371
LeftToeBase 7.244770 -0.000000 -0.000000
Spine -8.735798 -0.506794 -0.317198
RightShoulder -16.820819 -16.183481 -19.727736
RightArm 29.468242 17.332922 53.798100
RightForeArm -3.874309 -0.000000 22.323369
RightHand 11.842792 -0.000000 0.100479
RightHandThumb1 -24.326973 -0.000000 -32.862282
LeftShoulder -23.047839 8.456137 25.316524
LeftArm -0.752048 -47.190110 -48.377103
LeftForeArm 10.345074 -0.000000 70.630580
LeftHand -3.861632 -0.000000 34.745191
LeftHandThumb1 -26.253704 0.000000 33.147579
Head 18.436953 -8.764023 -2.940267
2442
root 0.190439 33.156805 -2.066598 8.008920 -13.825508 -3.089210
RightUpLeg -22.563351 -21.022842 2.018283
RightLeg 91.229800 -0.000000 -0.000000
RightFoot 1.419905 -9.058414 0.313884
RightToeBase -4.859914 -0.000000 0.000000
LeftUpLeg -2.180328 7.443057 -6.906136
LeftLeg 1.738023 -0.000000 -0.000000
LeftFoot -13.557375 9.717277 -4.656551
LeftToeBase 7.245693 -0.000000 -0.000000
Spine -8.695473 -0.460825 -0.322589
RightShoulder -16.819586 -16.202630 -19.717166
RightArm 29.470416 17.371528 53.788707
RightForeArm -3.889260 0.000000 22.316013
RightHand 11.832852 -0.000000 0.106256
RightHandThumb1 -24.326973 -0.000000 -32.862282
LeftShoulder -23.079147 8.475931 25.292048
LeftArm -0.766296 -47.230757 -48.365989
LeftForeArm 10.346017 -0.000000 70.591307
LeftHand -3.884058 -0.000000 34.783911
LeftHandThumb1 -26.253704 0.000000 33.147579
Head 18.439583 -8.654643 -2.947174
